<svg width="15" height="15" viewBox="0 0 15 15" fill="none" xmlns="http://www.w3.org/2000/svg">
<path d="M7.28245 10.3125H7.76322V7.76683H10.3125V7.28606H7.76322V4.6875H7.28245V7.28606H4.6875V7.76683H7.28245V10.3125ZM7.50625 13.125C6.72317 13.125 5.99247 12.9774 5.31416 12.6822C4.63583 12.387 4.0408 11.9838 3.52905 11.4725C3.01731 10.9612 2.6137 10.3664 2.31822 9.68791C2.02274 9.00945 1.875 8.27824 1.875 7.49428C1.875 6.71833 2.0226 5.98881 2.3178 5.3057C2.61301 4.6226 3.01624 4.02778 3.52752 3.52123C4.03879 3.0147 4.63365 2.6137 5.31209 2.31822C5.99055 2.02274 6.72176 1.875 7.50572 1.875C8.28167 1.875 9.01119 2.0226 9.6943 2.3178C10.3774 2.61301 10.9722 3.01364 11.4788 3.5197C11.9853 4.02577 12.3863 4.62085 12.6818 5.30497C12.9773 5.98909 13.125 6.71869 13.125 7.49375C13.125 8.27683 12.9774 9.00753 12.6822 9.68584C12.387 10.3642 11.9864 10.9582 11.4803 11.4681C10.9742 11.9779 10.3791 12.3815 9.69503 12.6789C9.01091 12.9763 8.28131 13.125 7.50625 13.125ZM7.50781 12.6442C8.9337 12.6442 10.1462 12.144 11.1454 11.1436C12.1446 10.1432 12.6442 8.92608 12.6442 7.49219C12.6442 6.0663 12.1456 4.85376 11.1484 3.85456C10.1511 2.85536 8.935 2.35577 7.5 2.35577C6.07131 2.35577 4.85677 2.85439 3.85637 3.85164C2.85597 4.84888 2.35577 6.065 2.35577 7.5C2.35577 8.92869 2.85597 10.1432 3.85637 11.1436C4.85677 12.144 6.07392 12.6442 7.50781 12.6442Z" fill="black"/>
</svg>
