<svg width="13" height="14" viewBox="0 0 13 14" fill="none" xmlns="http://www.w3.org/2000/svg">
<path d="M1.58972 13.1333C1.33353 13.1333 1.11564 13.0436 0.93604 12.864C0.756451 12.6844 0.666656 12.4665 0.666656 12.2103V3.38975C0.666656 3.13356 0.756451 2.91566 0.93604 2.73606C1.11564 2.55647 1.33353 2.46668 1.58972 2.46668H7.39102L6.87819 2.9795H1.58972C1.48717 2.9795 1.39315 3.02223 1.30767 3.1077C1.22221 3.19317 1.17947 3.28719 1.17947 3.38975V12.2103C1.17947 12.3128 1.22221 12.4069 1.30767 12.4923C1.39315 12.5778 1.48717 12.6205 1.58972 12.6205H10.4103C10.5128 12.6205 10.6068 12.5778 10.6923 12.4923C10.7778 12.4069 10.8205 12.3128 10.8205 12.2103V6.89745L11.3333 6.38463V12.2103C11.3333 12.4665 11.2435 12.6844 11.0639 12.864C10.8843 13.0436 10.6664 13.1333 10.4103 13.1333H1.58972ZM9.37947 2.52308L9.74999 2.88976L5.17947 7.4436V8.62053H6.33974L10.9397 4.04616L11.2936 4.3872L6.56409 9.13335H4.66666V7.23591L9.37947 2.52308ZM11.2989 4.3872L9.37947 2.52308L10.7641 1.13846C10.9359 0.966673 11.1496 0.882912 11.4052 0.887179C11.6608 0.891457 11.8808 0.985051 12.0654 1.16796L12.6449 1.73848C12.8252 1.93108 12.9154 2.15236 12.9154 2.40233C12.9154 2.6523 12.8197 2.86776 12.6282 3.04873L11.2989 4.3872Z" fill="black"/>
</svg>
