<svg width="119" height="21" viewBox="0 0 119 21" fill="none" xmlns="http://www.w3.org/2000/svg">
<path d="M1.85 19V1.25H5.3V19H1.85ZM20.8533 19H17.5033V11.65C17.5033 10.6 17.32 9.83333 16.9533 9.35C16.5867 8.86667 16.0783 8.625 15.4283 8.625C14.9783 8.625 14.52 8.74167 14.0533 8.975C13.6033 9.20833 13.195 9.53333 12.8283 9.95C12.4617 10.35 12.195 10.8167 12.0283 11.35V19H8.67832V5.9H11.7033V8.325C12.0367 7.75833 12.4617 7.28333 12.9783 6.9C13.495 6.5 14.0867 6.2 14.7533 6C15.4367 5.78333 16.1533 5.675 16.9033 5.675C17.72 5.675 18.3867 5.825 18.9033 6.125C19.4367 6.40833 19.8367 6.8 20.1033 7.3C20.3867 7.78333 20.5783 8.33333 20.6783 8.95C20.795 9.56667 20.8533 10.1917 20.8533 10.825V19ZM31.5441 19.125C30.2441 19.125 29.0608 18.875 27.9941 18.375C26.9441 17.875 26.0358 17.2 25.2691 16.35C24.5191 15.4833 23.9358 14.5167 23.5191 13.45C23.1025 12.3667 22.8941 11.2583 22.8941 10.125C22.8941 8.94167 23.1108 7.81667 23.5441 6.75C23.9941 5.66667 24.6025 4.70833 25.3691 3.875C26.1525 3.025 27.0691 2.35833 28.1191 1.875C29.1858 1.375 30.3525 1.125 31.6191 1.125C32.9025 1.125 34.0691 1.38333 35.1191 1.9C36.1858 2.41667 37.0941 3.10833 37.8441 3.975C38.5941 4.84167 39.1775 5.80833 39.5941 6.875C40.0108 7.94167 40.2191 9.04167 40.2191 10.175C40.2191 11.3417 40.0025 12.4667 39.5691 13.55C39.1358 14.6167 38.5275 15.575 37.7441 16.425C36.9775 17.2583 36.0608 17.9167 34.9941 18.4C33.9441 18.8833 32.7941 19.125 31.5441 19.125ZM26.3941 10.125C26.3941 10.8917 26.5108 11.6333 26.7441 12.35C26.9775 13.0667 27.3108 13.7083 27.7441 14.275C28.1941 14.825 28.7358 15.2667 29.3691 15.6C30.0191 15.9167 30.7525 16.075 31.5691 16.075C32.4025 16.075 33.1441 15.9083 33.7941 15.575C34.4441 15.225 34.9858 14.7667 35.4191 14.2C35.8525 13.6167 36.1775 12.975 36.3941 12.275C36.6275 11.5583 36.7441 10.8417 36.7441 10.125C36.7441 9.35833 36.6191 8.625 36.3691 7.925C36.1358 7.20833 35.7941 6.575 35.3441 6.025C34.9108 5.45833 34.3691 5.01667 33.7191 4.7C33.0858 4.36667 32.3691 4.2 31.5691 4.2C30.7191 4.2 29.9691 4.375 29.3191 4.725C28.6858 5.05833 28.1525 5.50833 27.7191 6.075C27.2858 6.64167 26.9525 7.275 26.7191 7.975C26.5025 8.675 26.3941 9.39167 26.3941 10.125ZM50.2186 8.8C49.2019 8.8 48.2936 9 47.4936 9.4C46.6936 9.78333 46.1186 10.3417 45.7686 11.075V19H42.4186V5.9H45.4936V8.7C45.9602 7.8 46.5519 7.09167 47.2686 6.575C47.9852 6.05833 48.7436 5.775 49.5436 5.725C49.7269 5.725 49.8686 5.725 49.9686 5.725C50.0686 5.725 50.1519 5.73333 50.2186 5.75V8.8ZM51.1645 12.45C51.1645 11.1833 51.4145 10.0417 51.9145 9.025C52.4145 7.99167 53.1061 7.175 53.9895 6.575C54.8728 5.975 55.8811 5.675 57.0145 5.675C57.9811 5.675 58.8478 5.91667 59.6145 6.4C60.3978 6.86667 61.0061 7.46667 61.4395 8.2V0.75H64.7895V15.25C64.7895 15.6 64.8478 15.85 64.9645 16C65.0811 16.15 65.2811 16.2417 65.5645 16.275V19C64.9811 19.1167 64.5061 19.175 64.1395 19.175C63.5395 19.175 63.0395 19.025 62.6395 18.725C62.2561 18.425 62.0395 18.0333 61.9895 17.55L61.9395 16.725C61.4561 17.5417 60.7978 18.1667 59.9645 18.6C59.1478 19.0333 58.2895 19.25 57.3895 19.25C56.4895 19.25 55.6561 19.075 54.8895 18.725C54.1395 18.375 53.4811 17.8917 52.9145 17.275C52.3645 16.6583 51.9311 15.9417 51.6145 15.125C51.3145 14.2917 51.1645 13.4 51.1645 12.45ZM61.4395 14.2V11.075C61.2728 10.5917 61.0061 10.1583 60.6395 9.775C60.2728 9.39167 59.8645 9.09167 59.4145 8.875C58.9645 8.64167 58.5145 8.525 58.0645 8.525C57.5478 8.525 57.0811 8.63333 56.6645 8.85C56.2478 9.06667 55.8811 9.35833 55.5645 9.725C55.2645 10.0917 55.0311 10.5167 54.8645 11C54.7145 11.4833 54.6395 11.9917 54.6395 12.525C54.6395 13.0583 54.7228 13.5667 54.8895 14.05C55.0728 14.5167 55.3311 14.925 55.6645 15.275C55.9978 15.625 56.3811 15.9 56.8145 16.1C57.2645 16.3 57.7478 16.4 58.2645 16.4C58.5811 16.4 58.8978 16.35 59.2145 16.25C59.5478 16.1333 59.8561 15.9833 60.1395 15.8C60.4395 15.6 60.6978 15.3667 60.9145 15.1C61.1478 14.8167 61.3228 14.5167 61.4395 14.2ZM74.1527 19.25C73.1027 19.25 72.1527 19.075 71.3027 18.725C70.4527 18.3583 69.7277 17.8667 69.1277 17.25C68.5277 16.6167 68.0611 15.9 67.7277 15.1C67.4111 14.2833 67.2527 13.425 67.2527 12.525C67.2527 11.275 67.5277 10.1333 68.0777 9.1C68.6444 8.06667 69.4444 7.24167 70.4777 6.625C71.5277 5.99167 72.7611 5.675 74.1777 5.675C75.6111 5.675 76.8361 5.99167 77.8527 6.625C78.8694 7.24167 79.6444 8.06667 80.1777 9.1C80.7277 10.1167 81.0027 11.2167 81.0027 12.4C81.0027 12.6 80.9944 12.8083 80.9777 13.025C80.9611 13.225 80.9444 13.3917 80.9277 13.525H70.8027C70.8694 14.1917 71.0611 14.775 71.3777 15.275C71.7111 15.775 72.1277 16.1583 72.6277 16.425C73.1444 16.675 73.6944 16.8 74.2777 16.8C74.9444 16.8 75.5694 16.6417 76.1527 16.325C76.7527 15.9917 77.1611 15.5583 77.3777 15.025L80.2527 15.825C79.9361 16.4917 79.4777 17.0833 78.8777 17.6C78.2944 18.1167 77.6027 18.525 76.8027 18.825C76.0027 19.1083 75.1194 19.25 74.1527 19.25ZM70.7277 11.4H77.5777C77.5111 10.7333 77.3194 10.1583 77.0027 9.675C76.7027 9.175 76.3027 8.79167 75.8027 8.525C75.3027 8.24167 74.7444 8.1 74.1277 8.1C73.5277 8.1 72.9777 8.24167 72.4777 8.525C71.9944 8.79167 71.5944 9.175 71.2777 9.675C70.9777 10.1583 70.7944 10.7333 70.7277 11.4ZM90.8436 8.8C89.8269 8.8 88.9186 9 88.1186 9.4C87.3186 9.78333 86.7436 10.3417 86.3936 11.075V19H83.0436V5.9H86.1186V8.7C86.5852 7.8 87.1769 7.09167 87.8936 6.575C88.6102 6.05833 89.3686 5.775 90.1686 5.725C90.3519 5.725 90.4936 5.725 90.5936 5.725C90.6936 5.725 90.7769 5.73333 90.8436 5.75V8.8Z" fill="#F7F7F7"/>
<rect x="100.38" y="1.91843" width="3" height="18" transform="rotate(15 100.38 1.91843)" fill="#EDEDED"/>
<rect x="115.975" y="10.4038" width="3" height="10" transform="rotate(45 115.975 10.4038)" fill="#EDEDED"/>
<rect x="108.701" y="6.18781" width="3" height="14" transform="rotate(30 108.701 6.18781)" fill="#EDEDED"/>
</svg>
