<svg width="15" height="15" viewBox="0 0 15 15" fill="none" xmlns="http://www.w3.org/2000/svg">
<path d="M2.56112 15C2.16037 15 1.81293 14.8694 1.5188 14.6083C1.22468 14.3472 1.07762 14.0387 1.07762 13.6829V1.35368H0V0.621954H4.12912V0H10.8709V0.621954H15V1.35368H13.9224V13.6829C13.9224 14.0485 13.7781 14.3594 13.4894 14.6156C13.2008 14.8719 12.8506 15 12.4389 15H2.56112ZM13.0982 1.35368H1.90179V13.6829C1.90179 13.8537 1.96704 13.9939 2.09754 14.1037C2.22802 14.2134 2.38254 14.2683 2.56112 14.2683H12.4389C12.6037 14.2683 12.7548 14.2073 12.8922 14.0854C13.0295 13.9634 13.0982 13.8293 13.0982 13.6829V1.35368ZM5.23556 12.2964H6.05976V3.30185H5.23556V12.2964ZM8.94024 12.2964H9.76444V3.30185H8.94024V12.2964Z" fill="black"/>
</svg>
